<svg xmlns="http://www.w3.org/2000/svg" width="124.464" height="125.439" viewBox="0 0 124.464 125.439"><path data-name="Path 17654" d="M59.145.078a62.241 62.241 0 0129.694 118.428l-.9.427-2.283-4.819.9-.427a56.905 56.905 0 10-48.17.218l.909.421-2.242 4.839-.907-.419a62.24 62.24 0 0123-118.668zm29.739 116.185a60.236 60.236 0 10-52.8.24l.56-1.21a58.893 58.893 0 1151.67-.234z" fill="#ffdb40"/><g data-name="Group 252" fill="#ffdb40"><path data-name="Path 17657" d="M61.375 100.142a27.433 27.433 0 1127.43-27.429 27.464 27.464 0 01-27.43 27.429zm0-52.63a25.2 25.2 0 1025.2 25.2 25.226 25.226 0 00-25.2-25.199z"/><path data-name="Path 17658" d="M61.375 100.768a28.059 28.059 0 1128.054-28.055 28.091 28.091 0 01-28.054 28.055zm0-54.867a26.809 26.809 0 1026.8 26.812 26.839 26.839 0 00-26.8-26.812zm0 52.631a25.822 25.822 0 1125.819-25.819 25.852 25.852 0 01-25.819 25.819zm0-50.395a24.572 24.572 0 1024.569 24.576 24.6 24.6 0 00-24.569-24.576z"/></g><g data-name="Group 255" fill="#ffdb40"><path data-name="Rectangle 71" d="M60.252 99.025h2.236v25.789h-2.236z"/><path data-name="Path 17662" d="M63.113 125.439h-3.486V98.4h3.486zm-2.236-1.25h.986V99.65h-.988z"/></g><g data-name="Group 256" fill="#ffdb40"><path data-name="Rectangle 72" d="M51.531 112.76h19.822v2.236H51.531z"/><path data-name="Path 17663" d="M71.975 115.62H50.907v-3.485h21.068zm-19.822-1.25h18.572v-.985H52.157z"/></g><g data-name="Group 258" fill="#ffdb40"><path data-name="Path 17666" d="M72.786 39.493l-22.923-.035.077-13.945c.113-5.694 5.229-10.311 11.4-10.311 6.2 0 11.313 4.633 11.408 10.327zm-20.674-2.267l18.431.027-.028-11.7c-.074-4.467-4.19-8.113-9.172-8.113-4.966 0-9.079 3.635-9.168 8.105z"/><path data-name="Path 17667" d="M73.412 40.113l-24.178-.037.081-14.563c.12-6.032 5.515-10.933 12.028-10.933 6.534 0 11.932 4.909 12.032 10.942zm-22.92-1.285l21.667.034-.034-13.333c-.088-5.346-4.925-9.7-10.782-9.7-5.837 0-10.672 4.351-10.778 9.7zm20.678-.955l-19.686-.028.066-12.308c.1-4.815 4.488-8.725 9.793-8.725 5.322 0 9.717 3.915 9.8 8.726zm-18.43-1.276l17.176.024-.026-11.07c-.068-4.126-3.9-7.489-8.547-7.489-4.629 0-8.461 3.36-8.543 7.491z"/></g><g data-name="Group 250"><path data-name="Path 17653" d="M36.567 117.838l1.4-3.025a57.894 57.894 0 1149.018-.223l1.427 3.012a61.236 61.236 0 10-51.845.236z" fill="#ffdb40"/></g></svg>