<svg xmlns="http://www.w3.org/2000/svg" width="98.595" height="98.622" viewBox="0 0 98.595 98.622"><g data-name="Group 345"><path data-name="Path 17577" d="M62.755 25.509v-1.265H52.487l7.849-7.849-1.792-1.792-7.85 7.849V9.697H48.16V22.45l-8.5-8.5-1.792 1.792 8.5 8.505H36.101v1.268a13.291 13.291 0 005.571 10.792h-5.571v1.267a13.289 13.289 0 005.571 10.792h-5.571v1.268a13.29 13.29 0 005.571 10.792h-5.571v1.267a13.287 13.287 0 006.5 11.387h-6.5v1.264a13.3 13.3 0 0012.06 13.2v8.029h2.532v-8.029a13.3 13.3 0 0012.06-13.2v-1.27h-6.5a13.287 13.287 0 006.5-11.387V60.42h-5.57a13.292 13.292 0 005.57-10.792V48.36h-5.57a13.291 13.291 0 005.57-10.792v-1.267h-5.57a13.293 13.293 0 005.572-10.792zM50.693 36.183v-9.406h9.451a10.781 10.781 0 01-9.451 9.406zm-11.985-9.406h9.451v9.406a10.782 10.782 0 01-9.449-9.407zm0 12.06h9.451v9.407a10.781 10.781 0 01-9.449-9.408zm0 12.06h9.451v9.406a10.782 10.782 0 01-9.449-9.407zm0 12.059h9.451v9.406a10.783 10.783 0 01-9.449-9.408zm0 12.653h9.451v9.406a10.783 10.783 0 01-9.449-9.407zm11.985 9.405v-9.406h9.451a10.782 10.782 0 01-9.451 9.406zm0-12.653v-9.407h9.451a10.782 10.782 0 01-9.451 9.407zm0-12.06v-9.406h9.451a10.781 10.781 0 01-9.451 9.406zm0-12.06v-9.406h9.451a10.781 10.781 0 01-9.451 9.409z" fill="#ffdb40"/><g data-name="Group 171" fill="#ffdb40"><path data-name="Path 17578" d="M86.277 76.539a45.938 45.938 0 00-62.616-65.358l-1.421-2.11a48.481 48.481 0 0166.084 68.976z"/><path data-name="Path 17579" d="M88.491 79.156l-3.324-2.449.471-.638a45.145 45.145 0 00-61.534-64.23l-.658.443-2.305-3.425.657-.442a49.274 49.274 0 0167.164 70.1zm-1.111-2.788l.771.568A47.69 47.69 0 0023.344 9.292l.535.8a46.732 46.732 0 0163.5 66.281z"/></g><g data-name="Group 172" fill="#ffdb40"><path data-name="Path 17580" d="M14.319 82.879a48.439 48.439 0 01-4.42-61.843l2.066 1.484a45.938 45.938 0 0063 64.875l1.424 2.107a48.337 48.337 0 01-62.07-6.623z"/><path data-name="Path 17581" d="M49.29 98.622a49.183 49.183 0 01-35.542-15.193 49.231 49.231 0 01-4.492-62.855l.463-.643 3.353 2.409-.464.644a45.145 45.145 0 0061.911 63.755l.657-.444 2.312 3.421-.656.445a49.071 49.071 0 01-27.542 8.461zm-34.4-16.29a47.549 47.549 0 0060.392 6.953l-.536-.794a46.732 46.732 0 01-63.883-65.785l-.778-.56a47.65 47.65 0 004.805 60.185z"/></g><g data-name="Group 181"><g data-name="Group 180" fill="#f49c6a"><g data-name="Group 173"><path data-name="Rectangle 27" d="M14.473 14.608l1.924-1.805 3.864 4.118-1.924 1.805z"/><path data-name="Path 17582" d="M18.301 19.846l-4.948-5.274 3.081-2.89 4.948 5.274zm-2.707-5.2l2.779 2.962.768-.721-2.779-2.962z"/></g><g data-name="Group 174"><path data-name="Rectangle 28" d="M77.682 81.978l1.924-1.805 3.864 4.118-1.924 1.805z"/><path data-name="Path 17583" d="M81.51 87.217l-4.949-5.275 3.081-2.89 4.949 5.275zm-2.708-5.2l2.779 2.962.767-.72-2.778-2.962z"/></g><g data-name="Group 175"><path data-name="Rectangle 29" d="M22.752 23.433l1.924-1.805 7.037 7.5-1.924 1.806z"/><path data-name="Path 17584" d="M29.753 32.054l-8.121-8.657 3.08-2.89 8.122 8.657zm-5.88-8.585l5.952 6.344.768-.721-5.952-6.344z"/></g><g data-name="Group 176"><path data-name="Rectangle 30" d="M33.388 34.768l1.924-1.805 7.038 7.501-1.924 1.805z"/><path data-name="Path 17585" d="M40.39 43.39l-8.122-8.657 3.08-2.89 8.123 8.657zm-5.881-8.586l5.953 6.345.768-.72-5.953-6.345z"/></g><g data-name="Group 177"><path data-name="Rectangle 31" d="M44.29 46.388l1.924-1.805 7.037 7.5-1.924 1.806z"/><path data-name="Path 17586" d="M51.291 55.009l-8.121-8.657 3.08-2.89 8.122 8.657zm-5.88-8.585l5.952 6.344.768-.721-5.953-6.344z"/></g><g data-name="Group 178"><path data-name="Rectangle 32" d="M54.639 57.418l1.924-1.805 7.037 7.5-1.924 1.806z"/><path data-name="Path 17587" d="M61.64 66.039l-8.122-8.657 3.081-2.89 8.122 8.657zm-5.881-8.585l5.953 6.344.767-.721-5.952-6.346z"/></g><g data-name="Group 179"><path data-name="Rectangle 33" d="M65.942 69.466l1.924-1.805 7.037 7.5-1.924 1.806z"/><path data-name="Path 17588" d="M72.943 78.087l-8.122-8.657 3.08-2.89 8.122 8.657zm-5.881-8.585l5.952 6.344.768-.721-5.952-6.344z"/></g></g></g></g></svg>