<svg xmlns="http://www.w3.org/2000/svg" width="98.595" height="98.622" viewBox="0 0 98.595 98.622"><g data-name="Group 347"><path data-name="Path 17574" d="M69.914 39.996a10.1 10.1 0 005.621-9.241c0-8.728-8.8-10.429-8.941-10.444l-35.813.019c-.086.017-8.735 1.783-8.735 10.425a10.1 10.1 0 005.62 9.241c-2.385 1.018-5.62 3.153-5.62 7.243v31.159h53.489V47.239c0-4.09-3.237-6.225-5.621-7.243zm-38.749 1.187l5.838-1.006-5.813-1.135c-.285-.055-6.972-1.449-6.972-8.287 0-6.224 5.508-7.945 6.806-8.267l35.359-.021c.285.056 6.971 1.453 6.971 8.288s-6.687 8.232-6.97 8.287l-5.814 1.135 5.836 1.006c.07.012 6.948 1.279 6.948 6.056v28.983H24.222V47.239c0-4.779 6.878-6.044 6.943-6.056z" fill="#ffdb40"/><g data-name="Group 197" fill="#ffdb40"><path data-name="Path 17606" d="M86.276 76.538A45.937 45.937 0 0023.661 11.18L22.24 9.07a48.481 48.481 0 0166.083 68.976z"/><path data-name="Path 17607" d="M88.491 79.156l-3.323-2.449.471-.639a45.145 45.145 0 00-61.535-64.23l-.657.443-2.306-3.425.657-.443a49.274 49.274 0 0167.164 70.105zm-1.111-2.789l.772.569A47.691 47.691 0 0023.345 9.291l.535.8a46.731 46.731 0 0163.5 66.28z"/></g><g data-name="Group 198" fill="#ffdb40"><path data-name="Path 17608" d="M14.322 82.881a48.44 48.44 0 01-4.42-61.843l2.066 1.484a45.938 45.938 0 0063 64.875l1.424 2.107a48.337 48.337 0 01-62.07-6.623z"/><path data-name="Path 17609" d="M49.29 98.622a49.184 49.184 0 01-35.542-15.193 49.23 49.23 0 01-4.492-62.855l.462-.643 3.353 2.409-.463.644a45.145 45.145 0 0061.91 63.755l.657-.444 2.312 3.421-.656.444a49.068 49.068 0 01-27.541 8.462zm-34.4-16.29a47.547 47.547 0 0060.392 6.952l-.537-.794a46.732 46.732 0 01-63.882-65.785l-.778-.559a47.65 47.65 0 004.806 60.185z"/></g><g data-name="Group 207"><g data-name="Group 206" fill="#f49c6a"><g data-name="Group 199"><path data-name="Rectangle 42" d="M14.474 14.608l1.924-1.805 3.864 4.118-1.924 1.805z"/><path data-name="Path 17610" d="M18.302 19.846l-4.949-5.274 3.081-2.89 4.949 5.274zm-2.708-5.2l2.779 2.962.767-.721-2.779-2.962z"/></g><g data-name="Group 200"><path data-name="Rectangle 43" d="M77.681 81.978l1.924-1.805 3.864 4.118-1.924 1.805z"/><path data-name="Path 17611" d="M81.511 87.216l-4.947-5.274 3.079-2.889 4.949 5.273zm-2.707-5.2l2.779 2.962.767-.721-2.779-2.962z"/></g><g data-name="Group 201"><path data-name="Rectangle 44" d="M22.752 23.432l1.924-1.805 7.037 7.5-1.924 1.806z"/><path data-name="Path 17612" d="M29.754 32.053l-8.122-8.657 3.081-2.89 8.122 8.657zm-5.881-8.585l5.952 6.344.768-.721-5.952-6.344z"/></g><g data-name="Group 202"><path data-name="Rectangle 45" d="M33.389 34.769l1.924-1.805 7.038 7.501-1.924 1.805z"/><path data-name="Path 17613" d="M40.393 43.391l-8.123-8.658 3.081-2.89 8.122 8.658zm-5.882-8.587l5.953 6.345.768-.72-5.953-6.346z"/></g><g data-name="Group 203"><path data-name="Rectangle 46" d="M44.29 46.387l1.924-1.805 7.037 7.5-1.924 1.806z"/><path data-name="Path 17614" d="M51.292 55.007L43.17 46.35l3.081-2.89 8.121 8.657zm-5.881-8.586l5.952 6.345.768-.721-5.952-6.345z"/></g><g data-name="Group 204"><path data-name="Rectangle 47" d="M54.639 57.418l1.924-1.805 7.037 7.5-1.924 1.806z"/><path data-name="Path 17615" d="M61.637 66.039l-8.122-8.657 3.081-2.89 8.121 8.657zm-5.881-8.585l5.953 6.344.768-.721-5.953-6.344z"/></g><g data-name="Group 205"><path data-name="Rectangle 48" d="M65.942 69.466l1.924-1.805 7.037 7.5-1.924 1.806z"/><path data-name="Path 17616" d="M72.943 78.087l-8.121-8.657 3.08-2.89 8.121 8.657zm-5.881-8.586l5.953 6.345.768-.721-5.953-6.344z"/></g></g></g></g></svg>