<svg xmlns="http://www.w3.org/2000/svg" width="124.464" height="122.667" viewBox="0 0 124.464 122.667"><g data-name="Group 344" fill="#ffdb40"><g data-name="Group 249"><path data-name="Path 17651" d="M36.567 117.838l1.4-3.025a57.893 57.893 0 1149.017-.223l1.427 3.012a61.236 61.236 0 10-51.845.236z"/><path data-name="Path 17652" d="M59.146.078a62.242 62.242 0 0129.691 118.428l-.9.427-2.283-4.819.9-.427a56.9 56.9 0 10-48.169.218l.908.421-2.242 4.839-.907-.419a62.24 62.24 0 0123-118.668zm29.738 116.185a60.236 60.236 0 10-52.8.24l.56-1.21a58.893 58.893 0 1151.67-.234z"/></g><g data-name="Group 251"><path data-name="Path 17655" d="M61.437 98.861a27.434 27.434 0 1127.434-27.433 27.465 27.465 0 01-27.434 27.433zm0-52.631a25.2 25.2 0 1025.2 25.2 25.227 25.227 0 00-25.2-25.2z"/><path data-name="Path 17656" d="M61.437 99.486a28.059 28.059 0 1128.06-28.059 28.091 28.091 0 01-28.06 28.059zm0-54.867a26.809 26.809 0 1026.81 26.808 26.839 26.839 0 00-26.81-26.808zm0 52.631A25.823 25.823 0 1187.26 71.427 25.852 25.852 0 0161.437 97.25zm0-50.4A24.573 24.573 0 1086.01 71.422a24.6 24.6 0 00-24.573-24.567z"/></g><g data-name="Group 253"><path data-name="Rectangle 70" d="M60.316 97.743h2.236v22.899h-2.236z"/><path data-name="Path 17659" d="M63.177 121.266h-3.486V97.113h3.486zm-2.24-1.253h.986V98.367h-.986z"/></g><g data-name="Group 254"><path data-name="Path 17660" d="M61.437 121.783l-11.386-11.386 1.586-1.584 9.8 9.809 9.974-9.976 1.581 1.581z"/><path data-name="Path 17661" d="M61.437 122.667l-12.27-12.269 2.465-2.465 9.8 9.8 9.975-9.975 2.464 2.464zm-10.5-12.269l10.5 10.5 10.672-10.673-.7-.7-9.972 9.98-9.8-9.8z"/></g><g data-name="Group 257"><path data-name="Path 17664" d="M62.716 39.971a11.809 11.809 0 01-8.4-3.48 11.885 11.885 0 118.4 3.48zm0-21.525a9.644 9.644 0 00-6.822 16.464 9.648 9.648 0 106.822-16.464z"/><path data-name="Path 17665" d="M62.715 40.596a12.5 12.5 0 118.847-3.663 12.427 12.427 0 01-8.847 3.663zm0-23.762a11.252 11.252 0 107.962 3.294 11.18 11.18 0 00-7.962-3.294zm0 21.526a10.272 10.272 0 117.265-3.008 10.2 10.2 0 01-7.265 3.008zm0-19.289a9.012 9.012 0 106.381 2.636 8.969 8.969 0 00-6.381-2.636z"/></g></g></svg>