<svg xmlns="http://www.w3.org/2000/svg" width="116.588" height="111.623" viewBox="0 0 116.588 111.623"><g fill="#ffdb40"><g data-name="Group 270"><path data-name="Path 17680" d="M34.253 110.38l1.311-2.834a54.23 54.23 0 1145.916-.209l1.336 2.821a57.36 57.36 0 10-48.563.221z"/><path data-name="Path 17681" d="M55.403.073a58.3 58.3 0 0127.815 110.933l-.846.4-2.138-4.514.847-.4a53.3 53.3 0 10-45.122.205l.851.393-2.1 4.533-.85-.392A58.3 58.3 0 0155.403.073zM83.26 108.905a56.423 56.423 0 10-49.459.226l.525-1.134a55.166 55.166 0 1148.4-.219z"/></g><g stroke="#ffdb40" stroke-miterlimit="10"><path data-name="Trazado 222" d="M86.195 91.311H29.986A3.991 3.991 0 0126 87.325V31.116a3.99 3.99 0 013.986-3.986h56.209a3.99 3.99 0 013.986 3.986v56.212a3.991 3.991 0 01-3.986 3.983zM29.986 29.028a2.092 2.092 0 00-2.088 2.088v56.212a2.091 2.091 0 002.088 2.088h56.209a2.091 2.091 0 002.088-2.088V31.116a2.092 2.092 0 00-2.088-2.088z"/><path data-name="Rectángulo 10" d="M57.139 47.245h1.898v9.581h-1.898z"/><path data-name="Rectángulo 11" d="M57.139 64.013h1.898v19.162h-1.898z"/><path data-name="Trazado 223" d="M78.2 57.774H37.977v-.95a20.112 20.112 0 1140.223-.049v1zm-38.3-1.9h36.38a18.216 18.216 0 00-36.38 0z"/><path data-name="Rectángulo 12" d="M57.139 37.664h1.898v4.791h-1.898z"/><path data-name="Rectángulo 13" d="M43.867 43.954l1.342-1.342L48.597 46l-1.342 1.342z"/><path data-name="Rectángulo 14" d="M67.578 45.991l3.388-3.388 1.342 1.342-3.388 3.388z"/></g></g></svg>