<svg xmlns="http://www.w3.org/2000/svg" width="116.587" height="111.623" viewBox="0 0 116.587 111.623"><g data-name="Group 268" fill="#ffdb40"><path data-name="Path 17676" d="M34.252 110.38l1.312-2.834a54.229 54.229 0 1145.915-.209l1.337 2.821a57.36 57.36 0 10-48.564.221z"/><path data-name="Path 17677" d="M55.403.073a58.3 58.3 0 0127.815 110.933l-.847.4-2.138-4.514.847-.4a53.3 53.3 0 10-45.121.205l.851.393-2.1 4.533-.85-.392A58.3 58.3 0 0155.403.073zm27.856 108.832a56.423 56.423 0 10-49.459.226l.525-1.134a55.166 55.166 0 1148.4-.219z"/></g><path data-name="Trazado 221" d="M22 91.262V47.524h.95c5.994 0 16.267 2.86 19.758 10.41 3.105-2.528 7.251-3.64 12.087-3.237a29.067 29.067 0 0116.054 6.865c-.587-4.627 0-11.377.654-17.641.114-1.134.219-2.118.281-2.843-.619.008-1.5.008-2.767.008-2.13 0-4.76-.008-6.8-.015a6.239 6.239 0 01-5.587-3.462l-2.136-4.244a6.32 6.32 0 011.674-7.717l7.334-5.9a6.3 6.3 0 017.588-.216l14.522 10.372a6.291 6.291 0 012.433 3.546c1.841 7.171 7.839 32.042 7.839 50.954 0 .888-.9 1.435-1.685 1.814-3.622 1.742-14.342 3.986-25.339 4.576-17.074.923-25.431-2.316-29.477-5.333zm17.751-7.919l.4.322c7.376 5.9 22.592 5.72 31 5.083 12.725-.956 21.581-3.588 22.83-4.577-.049-18.658-5.963-43.158-7.779-50.245a4.39 4.39 0 00-1.7-2.475l-14.52-10.37a4.4 4.4 0 00-5.3.153l-7.338 5.895a4.405 4.405 0 00-1.169 5.382l2.134 4.24a4.355 4.355 0 003.9 2.414c6.2.022 10.109.019 10.471 0l.064.941h.983c0 .7-.144 2.088-.343 4-.615 5.911-1.762 16.916.229 20.515l-1.6 1.01c-3.329-4.68-10.639-8.489-17.374-9.053-3.367-.282-8.122.121-11.635 3.636L41.918 61.3l-.486-1.458c-2.467-7.4-12.292-10.1-17.534-10.4v39.179z" fill="#ffdb40" stroke="#ffdb40" stroke-miterlimit="10"/></svg>