<svg xmlns="http://www.w3.org/2000/svg" width="100.424" height="100.451" viewBox="0 0 100.424 100.451"><g data-name="Group 349"><g data-name="Group 224" fill="#ffdb40"><path data-name="Path 17628" d="M87.877 77.959a46.79 46.79 0 00-63.776-66.57L22.654 9.24a49.38 49.38 0 0167.309 70.256z"/><path data-name="Path 17629" d="M90.131 80.623l-3.385-2.493.479-.651A45.983 45.983 0 0024.55 12.057l-.67.452-2.349-3.49.669-.451a50.188 50.188 0 0168.41 71.4zm-1.132-2.839l.786.579a48.575 48.575 0 00-66.008-68.9l.544.81A47.6 47.6 0 0189 77.783z"/></g><g data-name="Group 225" fill="#ffdb40"><path data-name="Path 17630" d="M14.585 84.417a49.338 49.338 0 01-4.5-62.99l2.1 1.512a46.79 46.79 0 0064.167 66.077l1.451 2.146a49.234 49.234 0 01-63.218-6.745z"/><path data-name="Path 17631" d="M50.205 100.451A50.239 50.239 0 019.428 20.957l.472-.656 3.415 2.455-.472.656a45.982 45.982 0 0063.058 64.937l.67-.453 2.355 3.485-.668.451a49.972 49.972 0 01-28.053 8.619zM10.272 22.558a48.532 48.532 0 004.9 61.3 48.429 48.429 0 0061.512 7.083l-.547-.808a47.6 47.6 0 01-65.068-67.006z"/></g><g data-name="Group 234"><g data-name="Group 233" fill="#f49c6a"><g data-name="Group 226"><path data-name="Rectangle 56" d="M14.742 14.879l1.96-1.838 3.935 4.194-1.96 1.838z"/><path data-name="Path 17632" d="M18.64 20.215l-5.039-5.372 3.137-2.944 5.041 5.372zm-2.757-5.3l2.83 3.016.782-.733-2.83-3.017z"/></g><g data-name="Group 227"><path data-name="Rectangle 57" d="M79.122 83.499l1.96-1.838 3.935 4.194-1.96 1.838z"/><path data-name="Path 17633" d="M83.022 88.834l-5.041-5.371 3.137-2.943 5.04 5.371zm-2.758-5.3l2.83 3.017.782-.734-2.831-3.017z"/></g><g data-name="Group 228"><path data-name="Rectangle 58" d="M23.174 23.866l1.96-1.838 7.167 7.639-1.96 1.838z"/><path data-name="Path 17634" d="M30.306 32.647l-8.273-8.817 3.138-2.944 8.272 8.817zm-5.99-8.744l6.062 6.462.783-.734-6.063-6.462z"/></g><g data-name="Group 229"><path data-name="Rectangle 59" d="M34.007 35.413l1.96-1.838 7.168 7.64-1.96 1.839z"/><path data-name="Path 17635" d="M41.14 44.195l-8.274-8.818 3.138-2.944 8.273 8.818zm-5.991-8.745l6.063 6.463.783-.734-6.067-6.463z"/></g><g data-name="Group 230"><path data-name="Rectangle 60" d="M45.111 47.248l1.96-1.838 7.167 7.639-1.96 1.838z"/><path data-name="Path 17636" d="M52.242 56.029l-8.272-8.817 3.138-2.944 8.272 8.817zm-5.99-8.744l6.062 6.462.783-.734-6.063-6.462z"/></g><g data-name="Group 231"><path data-name="Rectangle 61" d="M55.652 58.482l1.96-1.838 7.167 7.639-1.96 1.838z"/><path data-name="Path 17637" d="M62.783 67.263l-8.272-8.817 3.137-2.944 8.272 8.817zm-5.99-8.744l6.063 6.462.782-.734-6.063-6.462z"/></g><g data-name="Group 232"><path data-name="Rectangle 62" d="M67.165 70.754l1.96-1.838 7.167 7.639-1.96 1.838z"/><path data-name="Path 17638" d="M74.296 79.535l-8.276-8.817 3.138-2.944 8.272 8.817zm-5.99-8.744l6.063 6.462.783-.734-6.063-6.461z"/></g></g></g></g></svg>