<svg xmlns="http://www.w3.org/2000/svg" width="116.588" height="111.623" viewBox="0 0 116.588 111.623"><g fill="#ffdb40"><g data-name="Group 269"><path data-name="Path 17678" d="M34.252 110.38l1.312-2.834a54.23 54.23 0 1145.915-.209l1.337 2.821a57.359 57.359 0 10-48.564.221z"/><path data-name="Path 17679" d="M55.403.073a58.3 58.3 0 0127.815 110.933l-.846.4-2.139-4.514.848-.4a53.3 53.3 0 10-45.122.205l.851.393-2.1 4.533-.85-.392A58.3 58.3 0 0155.404.073zM83.26 108.905a56.423 56.423 0 10-49.46.226l.525-1.134a55.165 55.165 0 1148.4-.219z"/></g><g data-name="Grupo 29" stroke="#ffdb40" stroke-miterlimit="10"><path data-name="Trazado 216" d="M35.675 98.001c-.114-.236-2.87-5.9-2.87-19.8 0-8.76 4.347-15.464 7.527-20.363 1.9-2.931 3.546-5.463 3.546-7.321 0-2.586-1.372-6.021-2.7-9.339-1.393-3.485-2.835-7.093-2.835-10.044a29.258 29.258 0 012.87-11.5l1.7.851a27.876 27.876 0 00-2.669 10.652c0 2.585 1.372 6.016 2.7 9.338 1.394 3.488 2.836 7.093 2.836 10.044 0 2.426-1.7 5.045-3.854 8.359-3.219 4.959-7.224 11.127-7.224 19.326 0 13.377 2.642 18.9 2.669 18.962z"/><path data-name="Trazado 217" d="M81.722 97.881l-1.8-.605a67.336 67.336 0 002.722-19.083c0-6.23-3.776-12.683-6.818-17.873-2.288-3.9-4.256-7.265-4.256-9.817 0-2.954 1.443-6.556 2.836-10.044 1.328-3.318 2.7-6.75 2.7-9.339a27.872 27.872 0 00-2.669-10.651l1.7-.851a29.31 29.31 0 012.87 11.5c0 2.949-1.443 6.556-2.835 10.044-1.328 3.318-2.7 6.75-2.7 9.338 0 2.035 1.852 5.2 4 8.857 3.154 5.382 7.079 12.083 7.079 18.828a67.738 67.738 0 01-2.829 19.696z"/><path data-name="Rectángulo 7" d="M34.354 71.709h48.405v1.898H34.354z"/><path data-name="Rectángulo 8" d="M40.473 35.713H76.87v1.898H40.473z"/><path data-name="Rectángulo 9" d="M57.723 89.27h1.898v8.306h-1.898z"/><path data-name="Trazado 218" d="M93.994 59.486l-6.3-6.306a3.775 3.775 0 010-5.339h0l6.3-6.306 1.344 1.345-6.306 6.305a1.88 1.88 0 000 2.656h0l6.306 6.3z"/><path data-name="Trazado 219" d="M23.344 59.487L22 58.143l6.864-6.864a1.1 1.1 0 000-1.546L22 42.869l1.344-1.343 6.864 6.864a3 3 0 010 4.233z"/></g></g></svg>