<svg xmlns="http://www.w3.org/2000/svg" width="77.103" height="74.023" viewBox="0 0 77.103 74.023"><g fill="#ffdb40" stroke-miterlimit="10"><path data-name="Union 10" d="M22.606 73.106A37.969 37.969 0 01.554 40.442 38.088 38.088 0 0136.666.557a38.088 38.088 0 0139.886 36.111A37.946 37.946 0 0154.82 72.96l-.552.261-1.4-2.947.552-.261A34.7 34.7 0 0073.291 36.83 34.823 34.823 0 0036.828 3.806 34.825 34.825 0 003.811 40.274 34.72 34.72 0 0023.976 70.14l.554.257-1.37 2.959z" stroke="rgba(0,0,0,0)"/><path data-name="Path 17703" d="M54.149 18.104h-7.093v-2.261a1.646 1.646 0 00-1.644-1.645h-13.79a1.647 1.647 0 00-1.645 1.645v2.264h-7.093A2.8 2.8 0 0020.09 20.9v38.623a2.8 2.8 0 002.794 2.794h31.269a2.8 2.8 0 002.794-2.794V20.897a2.8 2.8 0 00-2.798-2.793zm-23.417-2.261a.887.887 0 01.886-.885h13.795a.886.886 0 01.885.885v3.449a.885.885 0 01-.885.885H31.622a.887.887 0 01-.886-.885zm25.451 43.684a2.037 2.037 0 01-2.034 2.035H22.88a2.038 2.038 0 01-2.035-2.035v-38.63a2.037 2.037 0 012.035-2.034h7.093v.425a1.647 1.647 0 001.645 1.644h13.795a1.646 1.646 0 001.644-1.644v-.425h7.093a2.037 2.037 0 012.034 2.034z" stroke="#ffdb40" stroke-width="2"/><path data-name="Union 17" d="M47.207 52.354H35.181a.475.475 0 010-.949h13.727a.475.475 0 010 .949zm-16.874 0h-3.424a.475.475 0 010-.949h3.909a.475.475 0 010 .949zm16.874-8.2H35.181a.475.475 0 010-.949h13.727a.475.475 0 010 .949zm-16.874 0h-3.424a.475.475 0 010-.949h3.909a.475.475 0 010 .949zm16.874-7.964H35.181a.475.475 0 010-.949h13.727a.475.475 0 010 .949zm-16.874 0h-3.424a.475.475 0 010-.949h3.909a.475.475 0 010 .949zm16.874-7.809H35.181a.475.475 0 010-.949h13.727a.475.475 0 010 .949zm-16.874 0h-3.424a.475.475 0 010-.949h3.909a.475.475 0 010 .949z" stroke="#ffdb40" stroke-width=".75"/></g></svg>