<svg xmlns="http://www.w3.org/2000/svg" width="77.104" height="74.022" viewBox="0 0 77.104 74.022"><g fill="#ffdb40" stroke-miterlimit="10"><path data-name="Union 18" d="M22.606 73.102A37.969 37.969 0 01.554 40.439 38.09 38.09 0 0136.667.553a38.088 38.088 0 0139.885 36.111 37.947 37.947 0 01-21.731 36.292l-.552.262-1.4-2.946.553-.262a34.7 34.7 0 0019.872-33.184A34.825 34.825 0 0036.825 3.81 34.825 34.825 0 003.808 40.279a34.72 34.72 0 0020.165 29.866l.555.257-1.371 2.958z" stroke="rgba(0,0,0,0)"/><path data-name="Path 17726" d="M62.951 25.513a1.74 1.74 0 00-1.355-.645H23.165l-1.729-6.773a2.307 2.307 0 00-2.238-1.738h-5.722v.87h5.725a1.438 1.438 0 011.395 1.083l8.855 34.681a2.3 2.3 0 00.309.7c-.042 0-.083-.006-.125-.006a4.838 4.838 0 102.989 1.045h18.272a4.823 4.823 0 103.541-.811v-.059h-.595c-.06 0-.119-.009-.179-.009s-.119.007-.178.009h-21.8a1.44 1.44 0 01-1.4-1.083l-1.742-6.824h29.344a1.754 1.754 0 001.708-1.385l3.7-17.6a1.738 1.738 0 00-.344-1.455zm-9.113 29.216a3.954 3.954 0 11-.358 0zm-20.254 3.778a3.953 3.953 0 11-3.953-3.954 3.958 3.958 0 013.953 3.955zm25.164-14.121a.879.879 0 01-.856.7H28.326l-2.257-8.839h34.393zm3.7-17.594l-1.806 8.581h-34.8l-2.46-9.636h38.209a.874.874 0 01.856 1.055z" stroke="#ffdb40"/></g></svg>