<svg xmlns="http://www.w3.org/2000/svg" width="77.102" height="74.023" viewBox="0 0 77.102 74.023"><g fill="#ffdb40" stroke-miterlimit="10"><path data-name="Union 1" d="M22.606 73.106A37.969 37.969 0 01.555 40.442 38.088 38.088 0 0136.666.557a38.087 38.087 0 0139.886 36.111A37.945 37.945 0 0154.82 72.96l-.552.261-1.4-2.947.553-.261A34.7 34.7 0 0073.292 36.83 34.823 34.823 0 0036.824 3.813 34.825 34.825 0 003.806 40.281a34.722 34.722 0 0020.165 29.866l.556.257-1.371 2.959z" stroke="rgba(0,0,0,0)"/><path data-name="Union 2" d="M45.001 72.8a4.216 4.216 0 01-1.25-2.739c-.022-.287-.016-.575-.011-.853q.005-.188.005-.373V14.913v-.067a1.512 1.512 0 01.771-1.23 2.391 2.391 0 011.5-.122 5.881 5.881 0 012.7 1.159 7.71 7.71 0 012.947 5.019 14.053 14.053 0 01.1 1.986l.016 2.943c.015 3.448.031 7.014-.029 10.521a18.041 18.041 0 01-1.146 6.144 23.143 23.143 0 01-1.126 2.518 8.934 8.934 0 00-1.037 2.825 13.086 13.086 0 00.014 2.892c.023.294.045.587.061.873l1.083 18.853a4.808 4.808 0 01-.614 3.307 2.481 2.481 0 01-1.774.972 2.721 2.721 0 01-.283.014 2.919 2.919 0 01-1.927-.72zm.05-58.033c-.014.011-.053.046-.06.162v55.015l.011.115a4.016 4.016 0 00.273.985 2.045 2.045 0 00.9 1.066 1.611 1.611 0 001.521-.028c.689-.442.727-1.538.712-1.988-.019-.564-.056-1.127-.092-1.69l-1.172-20.341a8.222 8.222 0 01.368-2.921 11.813 11.813 0 01.83-1.859c.122-.238.246-.475.363-.717a17.506 17.506 0 001.726-5.74 34.982 34.982 0 00.114-3.753v-1.177a867 867 0 00-.021-10.361 9.564 9.564 0 00-.23-2.411 6.484 6.484 0 00-1.205-2.407 5.854 5.854 0 00-2.093-1.658 4.117 4.117 0 00-1.313-.355c-.053 0-.155-.014-.263-.014a.619.619 0 00-.37.077zM29.11 72.745c-1.283-.31-1.646-2.041-1.821-2.873a30.126 30.126 0 01-.49-5.734c-.032-2.092.018-4.319.164-7.225.105-2.12.255-4.411.471-7.209.068-.892.141-1.784.214-2.675.079-.98.159-1.959.233-2.939l.031-.371c.041-.522.084-1.06.083-1.584a13.835 13.835 0 00-1.146-4.918 29.391 29.391 0 00-2.042-4.074 6.3 6.3 0 01-.96-2.465 6.108 6.108 0 01-.035-.8l.14-14.418a.609.609 0 01.633-.608.6.6 0 01.614.614l-.143 14.628a4.459 4.459 0 00.765 2.316 31.991 31.991 0 012.058 4.046 16 16 0 011.336 5.044 14.739 14.739 0 01-.056 2.181l-.014.2c-.06.79-.124 1.58-.189 2.371a528.81 528.81 0 00-.492 6.413 188.162 188.162 0 00-.38 7.325c-.058 1.979-.1 4.319.057 6.666a22.32 22.32 0 00.281 2.528c.067.38.141.711.226 1.012.04.141.083.282.133.421a2.788 2.788 0 00.124.307 3.029 3.029 0 00.156.288c.019.03.039.059.059.087l.133.147.024.025.092.054a.482.482 0 01.05.014h1.226l.1-.005.02-.01h.005l.069-.038.017-.013c.027-.024.053-.049.078-.074s.037-.04.055-.062l.031-.044a2.49 2.49 0 00.192-.328 2.083 2.083 0 00.114-.266c.062-.168.106-.306.147-.445.086-.3.161-.626.229-1a32.978 32.978 0 00.4-5.629c.017-2.1-.044-4.325-.2-7.211a284.474 284.474 0 00-.473-7.051c-.059-.763-.122-1.526-.184-2.289a408.549 408.549 0 01-.249-3.132l-.021-.278a14.974 14.974 0 01-.065-2 15.41 15.41 0 011.281-5.053 31.555 31.555 0 012.065-4.106 4.762 4.762 0 00.82-2.232c.006-.124 0-.248 0-.374l-.14-14.438a.586.586 0 01.289-.526.659.659 0 01.653-.005.6.6 0 01.3.527l.14 14.389c0 .205 0 .41-.013.615a5.875 5.875 0 01-.923 2.578 29.576 29.576 0 00-2.036 4.013 14.334 14.334 0 00-1.209 4.921 16.5 16.5 0 00.078 1.686l.028.355c.056.744.117 1.489.177 2.231l.021.247a470.8 470.8 0 01.5 6.574c.193 2.892.31 5.258.365 7.445a64.623 64.623 0 01-.107 6.662 21.391 21.391 0 01-.342 2.62 6.9 6.9 0 01-.617 1.876 1.985 1.985 0 01-1.18 1.061 2.674 2.674 0 01-.752.056h-.676a2.236 2.236 0 01-.523-.041zm1.838-40.681a23.392 23.392 0 01-.005-1.375c0-.221.005-.444.005-.665V15.467a.6.6 0 01.623-.612.6.6 0 01.623.612c.019.467.012.921.006 1.374 0 .221-.006.445-.006.665v14.558a.6.6 0 01-.205.462.638.638 0 01-.417.15.6.6 0 01-.625-.612zm-3.257 0a24.304 24.304 0 01-.006-1.375c0-.221.006-.444.006-.665V15.467a.6.6 0 01.623-.612.6.6 0 01.623.612c.018.467.012.921.005 1.374 0 .221-.005.445-.005.665v14.558a.6.6 0 01-.206.462.635.635 0 01-.416.15.6.6 0 01-.625-.612z" stroke="#ffdb40" stroke-width=".75"/></g></svg>