<svg xmlns="http://www.w3.org/2000/svg" width="77.102" height="74.023" viewBox="0 0 77.102 74.023"><g fill="#ffdb40" stroke="rgba(0,0,0,0)" stroke-miterlimit="10"><path data-name="Union 3" d="M22.605 73.106A37.968 37.968 0 01.554 40.442 38.088 38.088 0 0136.666.557a38.087 38.087 0 0139.885 36.111A37.944 37.944 0 0154.82 72.96l-.552.261-1.4-2.947.553-.261A34.7 34.7 0 0073.292 36.83 34.823 34.823 0 0036.825 3.813 34.823 34.823 0 003.808 40.281a34.719 34.719 0 0020.165 29.866l.555.257-1.37 2.959z"/><path data-name="Union 4" d="M25.421 63.463l-1.438-13.145 2.068-.228.442 4.037h24.7l.282-3.434 2.074.169-1.032 12.6zm1.866-2.081h23.307l.424-5.173h-24.3zm23.741-17.371c.065 0 6.5-.437 9.05-5.716a11.406 11.406 0 00.167-8.821 10.009 10.009 0 00-4.809-5.809c-1.419-.633-5.514-1.384-8.418.494l-1.132-1.747a9.575 9.575 0 013.621-1.364c-.969-2.784-3.794-8.176-11.127-8.176-7.683 0-9.834 5.713-10.409 8.219a9.506 9.506 0 013.393 1.321l-1.132 1.747c-2.9-1.878-7-1.127-8.418-.494a10.011 10.011 0 00-4.81 5.807 11.413 11.413 0 00.168 8.823c2.553 5.279 8.985 5.712 9.05 5.716l-.115 2.078c-.313-.016-7.713-.49-10.807-6.886a13.5 13.5 0 01-.249-10.446 12.093 12.093 0 015.917-6.994 12.344 12.344 0 014.938-.881c.652-2.873 3.21-10.09 12.474-10.09 8.975 0 12.242 7.014 13.242 10.084a12.208 12.208 0 014.66.887 12.1 12.1 0 015.917 7 13.494 13.494 0 01-.249 10.445c-3.094 6.4-10.494 6.87-10.806 6.886z"/></g></svg>