<svg xmlns="http://www.w3.org/2000/svg" width="77.103" height="74.022" viewBox="0 0 77.103 74.022"><g fill="#ffdb40" stroke="rgba(0,0,0,0)" stroke-miterlimit="10"><path data-name="Union 5" d="M22.607 73.104A37.969 37.969 0 01.556 40.44 38.089 38.089 0 0136.668.554a38.088 38.088 0 0139.885 36.111 37.946 37.946 0 01-21.731 36.293l-.553.261-1.4-2.946.552-.262a34.7 34.7 0 0019.871-33.184A34.824 34.824 0 0036.824 3.811 34.824 34.824 0 003.808 40.28a34.718 34.718 0 0020.165 29.866l.555.257-1.371 2.958z"/><path data-name="Union 7" d="M31.684 30.611a15.2 15.2 0 0115.184-15.182 15.2 15.2 0 0115.185 15.182 15.2 15.2 0 01-15.185 15.186 15.2 15.2 0 01-15.184-15.186zm2.469 0a12.73 12.73 0 0012.715 12.716 12.73 12.73 0 0012.715-12.716 12.729 12.729 0 00-12.715-12.713 12.729 12.729 0 00-12.715 12.713z"/><path data-name="Union 6" d="M17.715 60.035a3.206 3.206 0 01-.938-2.781 3.256 3.256 0 01.913-1.822l15.219-15.22 1.748 1.748-15.219 15.218a.786.786 0 00-.218.433.763.763 0 00.223.661.752.752 0 00.667.21.773.773 0 00.423-.214l15.285-15.124 1.736 1.756-15.285 15.124a3.245 3.245 0 01-1.747.891 3.254 3.254 0 01-.551.047 3.207 3.207 0 01-2.256-.927z"/></g></svg>