<svg xmlns="http://www.w3.org/2000/svg" width="98.595" height="98.622" viewBox="0 0 98.595 98.622"><g data-name="Group 346"><path data-name="Path 17575" d="M79.317 49.929l-14.721-6.305V24.5l-.659.254-15.392-6.593-15.392 6.593-.659-.254v19.124l-14.721 6.305-.659-.254v20.714l16.05 6.207 15.38-5.948 15.38 5.948 16.049-6.207V49.674zm-1.79.692l-13.6 5.26-13.46-5.2 14.13-5.463v-.131zM33.836 57.06l14.038-5.428v17.842l-14.038 5.429zm0-30.6l14.038 5.429V49.64l-14.038-6.016zm29.419 17.167L49.216 49.64V31.885l14.039-5.429zm-14.71-24l13.6 5.826-13.6 5.26-13.6-5.26zM32.496 45.083v.131l14.129 5.463-13.459 5.2-13.6-5.26zm-14.038 6.549l14.038 5.428v17.838l-14.039-5.424zm30.758 0l14.039 5.429v17.837l-14.04-5.424zm29.417 17.842l-14.037 5.424V57.06l14.038-5.428z" fill="#ffdb40"/><path data-name="Path 17576" d="M63.926 76.975l-15.38-5.948-15.38 5.948-16.4-6.344V49.157l1.006.389 14.374-6.156V23.982l1.006.389 15.4-6.6 15.4 6.6 1.006-.389V43.39l14.374 6.156 1.006-.389v21.475zm-15.38-6.708l15.38 5.947 15.7-6.07V50.193l-.311.12-15.069-6.455V25.017l-.31.121-15.386-6.591-15.385 6.591-.31-.121v18.841l-15.07 6.455-.31-.12v19.952l15.7 6.07zm15.7 5.147v-18.6l14.748-5.7v18.6zm.709-18.112v17.077l13.329-5.154V52.15zM33.482 75.415v-18.6l14.748-5.7v18.6zm.709-18.112V74.38l13.329-5.154V52.15zM32.85 75.415l-14.748-5.7v-18.6l14.748 5.7zm-14.038-6.19l13.329 5.154V57.303l-13.329-5.154zm44.8 6.19l-14.749-5.7v-18.6l14.749 5.7zm-14.039-6.19l13.33 5.154V57.303l-13.33-5.154zm14.355-12.964l-14.446-5.586 14.759-5.706v-.426l14.226 6.093zM51.45 50.675l12.476 4.824 12.663-4.894-11.837-5.069-.026.01zM33.166 56.26l-14.542-5.624 14.226-6.093v.426l14.758 5.706zm-12.661-5.657l12.661 4.9 12.475-4.824-13.3-5.142zm27.725-.43l-14.748-6.317V25.939l14.748 5.7zM34.189 43.39l13.329 5.709v-16.97l-13.329-5.154zm14.669 6.785V31.642l14.749-5.7v17.919zm.71-18.046V49.1l13.33-5.709V26.975zm-1.025-1.042L34 25.463l14.543-6.228 14.542 6.228zM35.882 25.43l12.661 4.9 12.662-4.9-12.662-5.423z" fill="#ffdb40"/><g data-name="Group 208" fill="#ffdb40"><path data-name="Path 17617" d="M86.276 76.538A45.938 45.938 0 0023.661 11.18L22.24 9.07a48.481 48.481 0 0166.083 68.976z"/><path data-name="Path 17618" d="M88.492 79.156l-3.325-2.449.472-.638a45.145 45.145 0 00-61.535-64.23l-.658.443-2.305-3.426.657-.443a49.274 49.274 0 0167.164 70.109zm-1.112-2.788l.771.568A47.69 47.69 0 0023.344 9.292l.536.8a46.732 46.732 0 0163.5 66.281z"/></g><g data-name="Group 209" fill="#ffdb40"><path data-name="Path 17619" d="M14.318 82.88a48.44 48.44 0 01-4.42-61.843l2.066 1.484a45.938 45.938 0 0063 64.874l1.424 2.107a48.337 48.337 0 01-62.07-6.622z"/><path data-name="Path 17620" d="M49.29 98.622a49.186 49.186 0 01-35.543-15.193 49.231 49.231 0 01-4.492-62.856l.462-.643 3.353 2.41-.463.644a45.145 45.145 0 0061.911 63.755l.656-.444 2.312 3.42-.657.444a49.061 49.061 0 01-27.539 8.463zm-34.4-16.29a47.548 47.548 0 0060.392 6.952l-.536-.793A46.732 46.732 0 0110.863 22.71l-.778-.56a47.65 47.65 0 004.806 60.185z"/></g><g data-name="Group 218"><g data-name="Group 217" fill="#f49c6a"><g data-name="Group 210"><path data-name="Rectangle 49" d="M14.473 14.608l1.924-1.805 3.864 4.118-1.924 1.805z"/><path data-name="Path 17621" d="M18.3 19.847l-4.948-5.275 3.081-2.89 4.948 5.275zm-2.707-5.2l2.779 2.962.768-.721-2.778-2.962z"/></g><g data-name="Group 211"><path data-name="Rectangle 50" d="M77.681 81.979l1.924-1.805 3.864 4.118-1.924 1.805z"/><path data-name="Path 17622" d="M81.509 87.216l-4.949-5.273 3.081-2.89 4.949 5.274zm-2.707-5.2l2.779 2.962.768-.721-2.779-2.962z"/></g><g data-name="Group 212"><path data-name="Rectangle 51" d="M22.751 23.433l1.924-1.805 7.037 7.5-1.924 1.806z"/><path data-name="Path 17623" d="M29.752 32.054l-8.121-8.657 3.081-2.89 8.121 8.657zm-5.88-8.585l5.952 6.344.768-.721-5.952-6.344z"/></g><g data-name="Group 213"><path data-name="Rectangle 52" d="M33.387 34.769l1.924-1.805 7.038 7.501-1.924 1.805z"/><path data-name="Path 17624" d="M40.389 43.391l-8.122-8.657 3.081-2.89 8.122 8.657zm-5.881-8.587l5.953 6.346.768-.721-5.953-6.345z"/></g><g data-name="Group 214"><path data-name="Rectangle 53" d="M44.289 46.388l1.924-1.805 7.037 7.5-1.924 1.806z"/><path data-name="Path 17625" d="M51.29 55.009l-8.121-8.656 3.081-2.89 8.121 8.657zm-5.88-8.585l5.952 6.344.768-.721-5.952-6.344z"/></g><g data-name="Group 215"><path data-name="Rectangle 54" d="M54.638 57.418l1.924-1.805 7.037 7.5-1.924 1.806z"/><path data-name="Path 17626" d="M61.639 66.039l-8.122-8.657 3.081-2.89 8.121 8.656zm-5.881-8.585l5.952 6.344.768-.721-5.952-6.344z"/></g><g data-name="Group 216"><path data-name="Rectangle 55" d="M65.941 69.466l1.924-1.805 7.037 7.5-1.924 1.806z"/><path data-name="Path 17627" d="M72.942 78.086L64.82 69.43l3.081-2.89 8.121 8.657zm-5.881-8.584l5.953 6.344.767-.721-5.952-6.344z"/></g></g></g></g></svg>