<svg xmlns="http://www.w3.org/2000/svg" width="77.103" height="74.022" viewBox="0 0 77.103 74.022"><g fill="#ffdb40" stroke="rgba(0,0,0,0)" stroke-miterlimit="10"><path data-name="Union 8" d="M22.605 73.104A37.969 37.969 0 01.554 40.44 38.089 38.089 0 0136.664.554 38.089 38.089 0 0176.55 36.666a37.948 37.948 0 01-21.732 36.292l-.552.261-1.4-2.946.553-.262a34.7 34.7 0 0019.872-33.183A34.826 34.826 0 0036.822 3.811 34.825 34.825 0 003.805 40.28 34.72 34.72 0 0023.97 70.146l.555.257-1.371 2.958z"/><path data-name="Union 9" d="M51.587 53.482a4.189 4.189 0 01-4.185-4.184v-5.87H30.634v5.87a4.189 4.189 0 01-4.183 4.184h-1.006a4.151 4.151 0 01-4.043-3.181 4.143 4.143 0 01-2.743 1.048 4.189 4.189 0 01-4.185-4.184v-3.851a4.156 4.156 0 01-3.271-4.071 4.155 4.155 0 013.271-4.07v-3.1a4.189 4.189 0 014.185-4.184 4.148 4.148 0 012.743 1.048 4.151 4.151 0 014.043-3.181h1.006a4.189 4.189 0 014.183 4.184v5.117h16.768V29.94a4.189 4.189 0 014.185-4.184h1.005a4.2 4.2 0 014.048 3.208 4.138 4.138 0 012.773-1.075 4.189 4.189 0 014.184 4.184v3.041a4.19 4.19 0 013.61 4.126 4.189 4.189 0 01-3.61 4.126v3.8a4.189 4.189 0 01-4.184 4.184 4.138 4.138 0 01-2.773-1.075 4.2 4.2 0 01-4.048 3.208zm-2.478-23.539v19.355a2.479 2.479 0 002.478 2.476h1.005a2.479 2.479 0 002.476-2.476V29.943a2.479 2.479 0 00-2.476-2.476h-1.005a2.479 2.479 0 00-2.477 2.475zm-26.141 0v19.355a2.479 2.479 0 002.476 2.476h1.006a2.479 2.479 0 002.476-2.476V29.943a2.479 2.479 0 00-2.476-2.476h-1.006a2.479 2.479 0 00-2.475 2.475zm33.968 2.133v15.089a2.48 2.48 0 002.477 2.477 2.479 2.479 0 002.476-2.477V32.076a2.479 2.479 0 00-2.476-2.477 2.48 2.48 0 00-2.476 2.476zm-40.755 0v15.089a2.479 2.479 0 002.477 2.477 2.48 2.48 0 002.477-2.477V32.076a2.48 2.48 0 00-2.477-2.477 2.479 2.479 0 00-2.476 2.476zm14.452 9.644h16.768v-4.953H30.633zm32.963-.081a2.457 2.457 0 001.9-2.4 2.459 2.459 0 00-1.9-2.4zm-50.687-2.4a2.494 2.494 0 001.563 2.3v-4.594a2.493 2.493 0 00-1.561 2.298z"/></g></svg>