<svg xmlns="http://www.w3.org/2000/svg" width="98.664" height="99.256" viewBox="0 0 98.664 99.256"><g data-name="Group 344" fill="#ffdb40"><path data-name="Path 17589" d="M48.01 33.116c-5.849-11.984-20.682-9.031-20.844-8.989l-1.551.331.606 1.465c3.964 9.6 9.839 12.538 14.068 13.319a15.989 15.989 0 002.911.264 16.342 16.342 0 004.809-.713v8.488c-2.642-3.568-7.3-6.789-15.2-4.387-5.45 1.657-8.687 5.7-9.362 11.691a21.094 21.094 0 008.009 18.531l17.875 14.317 17.875-14.317a21.081 21.081 0 008-18.528c-.676-5.991-3.911-10.034-9.36-11.691-7.9-2.4-12.557.819-15.2 4.387v-8.488a16.341 16.341 0 004.809.713 16.02 16.02 0 002.912-.264c4.228-.781 10.1-3.724 14.067-13.319l.606-1.465-1.551-.331c-.164-.04-15-2.991-20.844 8.99v-6.675a16.466 16.466 0 004.174-6.285c1.48-4.039 1.937-10.594-4.3-18.89L49.568.002l-1.076 1.166c-.124.135-12.145 13.5-.485 25.5zm-18.657-6.645c3.951-.4 13.861-.3 17.212 10-3.069.781-11.65 1.717-17.211-9.998zm39.955 0c-5.565 11.717-14.142 10.779-17.212 10 3.354-10.296 13.255-10.398 17.212-9.998zm-4.226 18.951c4.422 1.345 6.947 4.527 7.5 9.46a16.693 16.693 0 01-.243 5.064H62.27v2.641h9.333a19.206 19.206 0 01-6.049 8.465l-3.747 3h-7.356v2.641h4.059l-9.18 7.353-16.224-13a19.666 19.666 0 01-1.5-1.362h22.847v-2.641h-25.07a17.957 17.957 0 01-3.356-11h11.791v-2.627h-11.49a9.957 9.957 0 017.254-7.991 14.726 14.726 0 014.282-.693c6.18 0 9.015 4.938 10.228 8.285l1.241 3.433 1.237-3.434c1.464-4.039 5.275-10.4 14.513-7.592zM49.4 4.241c7.252 10.753 2.082 17.659-.158 19.9-7.157-8.119-2.196-16.697.159-19.898z"/><g data-name="Group 182"><path data-name="Path 17590" d="M71.839 6.909l-1.228 2.34a45.893 45.893 0 11-38.818-1.752l-1.011-2.441a48.543 48.543 0 1041.057 1.853z"/><path data-name="Path 17591" d="M49.331 99.256A49.339 49.339 0 0130.479 4.324l.732-.3 1.619 3.9-.732.3a45.108 45.108 0 1038.147 1.721l-.7-.369 1.965-3.743.7.368a49.338 49.338 0 01-22.876 93.05zM30.355 6.098a47.751 47.751 0 1041.816 1.887l-.491.936a46.686 46.686 0 11-40.919-1.847z"/></g></g></svg>