<svg xmlns="http://www.w3.org/2000/svg" width="98.595" height="98.622" viewBox="0 0 98.595 98.622"><g data-name="Group 348"><g data-name="Group 185" fill="#ffdb40"><g data-name="Group 183"><path data-name="Path 17592" d="M87.412 46.669a7.14 7.14 0 00-14.248-.671h-9.426l-.4-.745c-13.184-22.556-36.67-19.8-39.394-19.393a1.3 1.3 0 00-1.586.273c-2.844 3.413-16.214 21.81-.137 48.943a1.276 1.276 0 001.111.629 1.284 1.284 0 00.741-.24 28.892 28.892 0 005.466.474c7.975 0 22.543-2.726 33.589-20.279h10.46a7.14 7.14 0 0013.82-2.52 6.951 6.951 0 00-.8-3.234 6.965 6.965 0 00.804-3.237zM23.335 27.058c2.854 3.456 15.474 21.147.043 47.333-15.514-26.186-2.895-43.877-.042-47.333zm61.927 23.185a5.691 5.691 0 01.805 2.9A5.8 5.8 0 0174.716 54.8l-.144-.48H62.389l-.2.318C48.504 76.695 29.208 74.96 24.914 74.256c14.239-24.793 3.93-42.139.14-47.177 4.994-.53 25.329-1.326 37.114 18.836l.048.089h-7.54v1.344h19.8v-.672a5.8 5.8 0 1111.593 0 5.7 5.7 0 01-.805 2.9l-.2.338z"/><path data-name="Path 17593" d="M29.542 76.478a30.258 30.258 0 01-5.364-.445 1.85 1.85 0 01-2.422-.683c-16.261-27.443-2.7-46.1.187-49.564a1.828 1.828 0 012.082-.485c3.352-.469 26.634-2.816 39.782 19.679l.255.476h8.625a7.681 7.681 0 0115.266 1.214 7.478 7.478 0 01-.74 3.234 7.47 7.47 0 01.74 3.234 7.681 7.681 0 01-14.726 3.061h-9.8C52.208 73.835 37.396 76.478 29.542 76.478zm-5.586-1.591l.226.045a28.625 28.625 0 005.36.463c7.667 0 22.167-2.6 33.133-20.027l.159-.253h11.132l.132.35a6.6 6.6 0 0012.773-2.328 6.43 6.43 0 00-.742-2.985L86 49.903l.129-.249a6.438 6.438 0 00.742-2.985 6.6 6.6 0 00-13.167-.621l-.047.491H63.414l-.552-1.031c-13.013-22.264-36.233-19.5-38.837-19.114l-.174.026-.156-.082a.831.831 0 00-.324-.089l.382.463c2.763 3.345 15.751 21.381.093 47.953l-.266.452a.8.8 0 00.187-.1zm-.654-48.64a.689.689 0 00-.527.231c-2.8 3.363-15.977 21.5-.085 48.32a.73.73 0 00.509.352l-.286-.484c-15.741-26.568-2.757-44.608.006-47.954zm.034 1.677c-3.3 4.268-13.942 21.041.041 45.391 13.909-24.353 3.262-41.123-.046-45.392zm6.109 47.2a29.076 29.076 0 01-4.618-.343l-.771-.127.389-.677c14.146-24.634 3.711-41.883.176-46.583l-.574-.763.95-.1c5.849-.621 25.844-1.076 37.639 19.1l.479.9h-7.9v.261h18.716v-.13a6.338 6.338 0 1112.675 0 6.237 6.237 0 01-.878 3.168l-.039.067.039.067a6.226 6.226 0 01.878 3.167 6.338 6.338 0 01-12.412 1.811l-.028-.094H62.683l-.038.061c-10.914 17.603-25.498 20.214-33.2 20.214zm-3.67-1.3c5.129.65 23.105 1.227 35.953-19.481l.356-.573h12.893l.258.867a5.255 5.255 0 0010.291-1.5 5.166 5.166 0 00-.731-2.622l-.358-.611.358-.612a5.168 5.168 0 00.731-2.622 5.255 5.255 0 10-10.51 0v1.212H54.131v-2.426h7.135C50.337 27.52 32.605 27.017 26.049 27.525c4.001 5.706 12.95 22.654-.273 46.298z"/></g><g data-name="Group 184"><path data-name="Rectangle 34" d="M23.126 46.669h1.343v8.162h-1.343z"/><path data-name="Path 17594" d="M25.011 55.372h-2.426v-9.244h2.426zm-1.343-1.083h.26V47.21h-.26z"/></g></g><g data-name="Group 186" fill="#ffdb40"><path data-name="Path 17595" d="M86.276 76.539a45.938 45.938 0 00-62.615-65.358l-1.421-2.11a48.481 48.481 0 0166.083 68.976z"/><path data-name="Path 17596" d="M88.492 79.155l-3.324-2.447.471-.639a45.145 45.145 0 00-61.534-64.23l-.658.444-2.308-3.422.657-.442a49.274 49.274 0 0167.164 70.1zm-1.111-2.787l.771.568A47.69 47.69 0 0023.345 9.291l.534.8a46.732 46.732 0 0163.5 66.281z"/></g><g data-name="Group 187" fill="#ffdb40"><path data-name="Path 17597" d="M14.319 82.88a48.44 48.44 0 01-4.421-61.843l2.066 1.485a45.938 45.938 0 0063 64.874l1.425 2.107a48.337 48.337 0 01-62.07-6.623z"/><path data-name="Path 17598" d="M49.291 98.621A49.325 49.325 0 019.256 20.574l.463-.644 3.353 2.41-.464.644a45.145 45.145 0 0061.91 63.755l.657-.445 2.313 3.421-.656.443a49.062 49.062 0 01-27.541 8.463zM10.085 22.149a47.648 47.648 0 004.806 60.184 47.547 47.547 0 0060.392 6.954l-.538-.794a46.733 46.733 0 01-63.883-65.786z"/></g><g data-name="Group 196"><g data-name="Group 195" fill="#f49c6a"><g data-name="Group 188"><path data-name="Rectangle 35" d="M14.473 14.607l1.924-1.805 3.864 4.118-1.924 1.805z"/><path data-name="Path 17599" d="M18.3 19.846l-4.947-5.274 3.08-2.89 4.949 5.274zm-2.707-5.2l2.779 2.961.768-.72-2.778-2.962z"/></g><g data-name="Group 189"><path data-name="Rectangle 36" d="M77.681 81.978l1.924-1.805 3.864 4.118-1.924 1.805z"/><path data-name="Path 17600" d="M81.51 87.216l-4.949-5.273 3.08-2.889 4.948 5.273zm-2.708-5.2l2.779 2.962.768-.721-2.779-2.962z"/></g><g data-name="Group 190"><path data-name="Rectangle 37" d="M22.752 23.432l1.924-1.805 7.037 7.5-1.924 1.806z"/><path data-name="Path 17601" d="M29.753 32.053l-8.122-8.654 3.08-2.89 8.121 8.657zm-5.881-8.585l5.952 6.344.769-.721-5.953-6.344z"/></g><g data-name="Group 191"><path data-name="Rectangle 38" d="M33.388 34.769l1.924-1.805 7.038 7.501-1.924 1.805z"/><path data-name="Path 17602" d="M40.39 43.391l-8.123-8.657 3.08-2.89 8.122 8.657zm-5.882-8.586l5.953 6.345.769-.721-5.953-6.345z"/></g><g data-name="Group 192"><path data-name="Rectangle 39" d="M44.29 46.387l1.924-1.805 7.037 7.5-1.924 1.806z"/><path data-name="Path 17603" d="M51.29 55.008l-8.121-8.657 3.081-2.89 8.121 8.656zm-5.88-8.585l5.952 6.344.769-.721-5.953-6.344z"/></g><g data-name="Group 193"><path data-name="Rectangle 40" d="M54.638 57.417l1.924-1.805 7.037 7.5-1.924 1.806z"/><path data-name="Path 17604" d="M61.639 66.038l-8.121-8.657 3.08-2.89 8.121 8.657zm-5.881-8.585l5.953 6.344.768-.721-5.952-6.344z"/></g><g data-name="Group 194"><path data-name="Rectangle 41" d="M65.941 69.465l1.924-1.805 7.037 7.5-1.924 1.806z"/><path data-name="Path 17605" d="M72.942 78.086l-8.125-8.657 3.08-2.89 8.121 8.656zm-5.881-8.585l5.953 6.344.769-.721-5.953-6.343z"/></g></g></g></g></svg>